<svg width="211" height="143" viewBox="0 0 211 143" fill="none" xmlns="http://www.w3.org/2000/svg">
<path d="M118.864 119.593C120.414 121.166 120.402 123.708 118.744 125.168C109.239 133.535 97.6621 139.245 85.1864 141.678C71.3994 144.367 57.1258 142.935 44.1476 137.561C31.1693 132.188 20.0614 123.11 12.2105 111.463C4.35953 99.8147 0.11343 86.1123 0.002241 72.066C-0.108948 58.0197 3.9197 44.2519 11.5853 32.4812C19.2508 20.7105 30.2137 11.4584 43.1052 5.88003C55.9968 0.301658 70.2459 -1.3559 84.0737 1.1143C96.5863 3.34955 108.252 8.8751 117.888 17.0908C119.569 18.5241 119.622 21.0655 118.097 22.6638L94.8404 47.0379C93.3154 48.6362 90.7967 48.6702 89.0088 47.3727C85.3802 44.7395 81.1896 42.9482 76.7424 42.1538C70.9771 41.1239 65.0362 41.815 59.6612 44.1408C54.2863 46.4666 49.7155 50.3241 46.5195 55.2317C43.3234 60.1393 41.6437 65.8796 41.6901 71.736C41.7365 77.5924 43.5068 83.3054 46.7801 88.1618C50.0535 93.0182 54.6847 96.8029 60.0958 99.0433C65.5069 101.284 71.4581 101.881 77.2063 100.76C81.6404 99.8949 85.8021 98.0375 89.3885 95.3472C91.1557 94.0216 93.6746 94.0157 95.2248 95.5896L118.864 119.593Z" fill="#E6B18E"/>
<path d="M90.0052 71.1506C90.0052 81.3678 81.7225 89.6506 71.5052 89.6506C61.2879 89.6506 53.0052 81.3678 53.0052 71.1506C53.0052 60.9333 61.2879 52.6506 71.5052 52.6506C81.7225 52.6506 90.0052 60.9333 90.0052 71.1506Z" fill="#E6B18E"/>
<path d="M99.7956 91.9384C98.2545 90.3555 98.2884 87.8231 99.8712 86.282L113.005 73.4944V70.1816L98.6849 56.3962C97.0934 54.8641 97.0452 52.3319 98.5773 50.7403L121.979 26.4308C123.511 24.8392 126.043 24.7911 127.635 26.3231L140.44 38.6505H148.793L168.76 19.2103C177.019 11.1692 190.233 11.3457 198.274 19.6048L208.648 30.2601C210.96 32.6343 210.909 36.433 208.535 38.7446L178.005 68.4689V74.8123L207.616 103.317C210.003 105.615 210.076 109.414 207.777 111.801L197.464 122.515C189.469 130.819 176.257 131.071 167.952 123.076L148.812 104.651H140.844L128.991 116.191C127.408 117.732 124.876 117.698 123.335 116.115L99.7956 91.9384Z" fill="#BF84FB"/>
</svg>
